<?xml version="1.0" encoding="UTF-8"?>
<svg width="512" height="512" viewBox="0 0 512 512" fill="none" xmlns="http://www.w3.org/2000/svg">
  <path fill="#F59E0B" d="M256 100
    C200 160 170 190 150 240
    C130 290 140 340 170 370
    C200 400 240 410 256 410
    C272 410 312 400 342 370
    C372 340 382 290 362 240
    C342 190 312 160 256 100
    Z
    M256 100
    C312 160 342 190 362 240
    C382 290 372 340 342 370
    C312 400 272 410 256 410
    C240 410 200 400 170 370
    C140 340 130 290 150 240
    C170 190 200 160 256 100
    Z" />
</svg> 